Coordinates
version=1
nRows=13
nColumns=36
inDegrees=yes

Units are S.I. units (second, meters, Newtons, ...)
If the header above contains a line with 'inDegrees', this indicates whether rotational values are in degrees (yes) or radians (no).

endheader
time	pelvis_tilt	pelvis_list	pelvis_rotation	pelvis_tx	pelvis_ty	pelvis_tz	hip_flexion_r	hip_adduction_r	hip_rotation_r	knee_angle_r	knee_angle_r_beta	ankle_angle_r	subtalar_angle_r	mtp_angle_r	hip_flexion_l	hip_adduction_l	hip_rotation_l	knee_angle_l	knee_angle_l_beta	ankle_angle_l	subtalar_angle_l	mtp_angle_l	lumbar_extension	lumbar_bending	lumbar_rotation	arm_flex_r	arm_add_r	arm_rot_r	elbow_flex_r	pro_sup_r	arm_flex_l	arm_add_l	arm_rot_l	elbow_flex_l	pro_sup_l
      0.00000000	      5.23359166	    -10.33727892	      4.13510196	      0.49775963	      1.03603838	      0.86598428	     17.66798397	     11.24323338	     -5.26469987	     22.78355913	      0.39764812	      3.45232846	    -10.19409946	     -6.99795548	    -11.84677052	    -15.59586345	     -3.83278917	     40.85232825	      0.71300764	     -3.75288262	     -4.54943842	     -6.99795548	    -22.89994298	     14.68510358	     -1.36266865	      5.49668755	    -10.59649501	     -5.26999093	     21.18832597	     83.68833029	     11.50115213	    -10.12667652	     -0.83620328	     22.91626094	     83.01846943
      0.01666670	      5.26615921	     -9.06107760	      2.14518358	      0.49826674	      1.03255366	      0.86646795	     16.62927487	     10.44613036	     -4.84985144	     23.82807234	      0.41587832	      4.59306604	    -11.73841418	     -7.02418419	     -9.00208940	    -13.57481448	     -2.79947363	     46.36839646	      0.80928119	    -10.88329336	     -5.85051028	     -7.02418419	    -23.49301263	     13.37189250	     -0.50235559	      6.53398528	    -10.35152246	     -5.89159109	     20.05154147	     82.23882218	     10.65232977	    -10.05801544	     -1.35476309	     23.54920671	     81.63242374
      0.03333330	      5.85956788	     -8.57105512	      1.61387021	      0.49782659	      1.03219505	      0.86708950	     15.04350642	     10.02822229	     -4.00678393	     24.21563261	      0.42264252	      5.85504265	    -11.92850534	     -7.03080813	     -7.06160173	    -13.18545852	     -2.04560978	     50.72995564	      0.88540476	    -14.01707604	     -4.11745952	     -7.03080813	    -23.77897990	     12.89049903	      0.25320257	      6.78788649	    -10.40415256	     -5.88904844	     19.99198793	     82.14309897	     10.40464470	     -9.93471212	     -1.44206633	     23.58658996	     81.51558747
      0.05000000	      4.64128353	     -8.51667383	      2.09431088	      0.49861732	      1.03072119	      0.86666777	     15.31470535	      9.82965761	     -4.50021064	     24.32481135	      0.42454805	      8.00486819	    -11.27996566	     -7.04142191	     -2.87324700	    -13.31246605	     -0.74658901	     55.18195802	      0.96310686	    -14.28143325	     -4.74634558	     -7.04142191	    -22.23876471	     13.12342790	      1.45593354	      6.42646320	    -10.74672901	     -6.12160259	     18.48213239	     81.97802588	     10.71711908	     -9.08569103	     -1.85421223	     23.30722940	     81.37134225
      0.06666670	      3.15233398	     -8.37795860	      2.50735493	      0.50086271	      1.03025696	      0.86727585	     15.85003729	      9.62212448	     -4.43774074	     24.53380402	      0.42819566	      9.77639139	    -10.31506616	     -7.07431387	      1.34061476	    -13.23555704	      0.35903172	     58.83633659	      1.02688779	    -12.93009233	     -5.37614074	     -7.07431387	    -20.30653407	     13.22325445	      1.24829399	      6.57378066	    -10.65139971	     -6.39813549	     17.77330444	     79.86761592	     10.11461677	     -8.61987273	     -2.51162864	     22.54237985	     79.59016092
      0.08333330	      2.32329148	     -8.36698799	      2.85342714	      0.50380852	      1.03327119	      0.86841618	     15.48899038	      9.66392186	     -4.23069529	     24.50538647	      0.42769968	     10.82956108	     -9.76790219	     -7.10616582	      4.58390703	    -13.19532383	      1.45091261	     61.55078200	      1.07426380	    -10.40529175	     -5.77002736	     -7.10616582	    -19.21273245	     13.33301003	      1.23424810	      6.91359715	    -10.73199661	     -6.04856112	     17.62137751	     78.40173573	      9.11474716	     -8.08432914	     -3.06454737	     22.43746814	     78.22802009
      0.10000000	      1.92317421	     -8.38483546	      3.16741390	      0.50578871	      1.03897412	      0.86914439	     14.42705218	      9.76891594	     -4.29843378	     24.14715617	      0.42144738	     11.38086714	     -9.27871026	     -7.11214300	      7.25278271	    -13.04195911	      2.75050528	     63.48359676	      1.10799778	     -7.36123669	     -6.30387004	     -7.11214300	    -18.54532013	     13.41918536	      1.18042887	      7.46715589	    -10.91574285	     -6.01516097	     17.97511454	     77.04757961	      7.82944087	     -7.57182478	     -3.68622427	     22.13214519	     76.78412699
      0.11666670	      1.70767077	     -8.30204633	      3.14681982	      0.50573809	      1.04473507	      0.86979356	     12.92539495	      9.87863352	     -4.19926795	     23.41448250	      0.40865981	     11.71121915	     -8.96519676	     -7.11159641	      9.70492937	    -12.65318235	      3.84764299	     64.57810345	      1.12710053	     -4.09089945	     -7.10257651	     -7.11159641	    -18.17214766	     13.29928530	      1.48809901	      8.18970440	    -11.20421457	     -6.00582767	     18.51983545	     75.81438910	      6.37126672	     -6.97719589	     -4.28240124	     21.85374904	     75.37425252
      0.13333330	      1.53456747	     -7.99498760	      3.12560412	      0.50391374	      1.04836151	      0.87124298	     11.28730444	      9.70530033	     -4.45603863	     22.37602679	      0.39053534	     12.20733197	     -8.21095594	     -7.11989672	     12.29655444	    -11.93889324	      4.74086597	     64.78071729	      1.13063681	     -0.59046893	     -7.83839997	     -7.11989672	    -18.06549442	     12.86220213	      1.80137709	      8.93591863	    -11.44739512	     -6.00780164	     19.36703871	     74.71725889	      4.92339468	     -6.55932115	     -4.96789495	     21.75685267	     74.02699973
      0.15000000	      1.13239638	     -7.42444795	      3.16706578	      0.50174476	      1.04992665	      0.87360895	      9.91658887	      9.18769297	     -4.97768576	     21.19240592	      0.36987726	     13.03457354	     -6.94005977	     -7.12976059	     15.20195730	    -10.93981152	      5.18931671	     63.89949014	      1.11525649	      2.49471904	     -8.23892875	     -7.12976059	    -17.89004983	     12.02870317	      2.08833758	      9.47819427	    -11.65692677	     -5.75022761	     20.43782661	     74.89945068	      3.60892506	     -6.42906779	     -5.24671390	     21.90214155	     73.97257407
      0.16666670	      0.52475905	     -6.67968598	      3.09590156	      0.50090101	      1.05004406	      0.87591123	      8.78397954	      8.51138386	     -5.25238163	     19.87015503	      0.34679963	     13.52614710	     -5.91787753	     -7.13613324	     18.08689577	     -9.94693929	      4.84815813	     62.00029138	      1.08210922	      4.57845372	     -8.18619637	     -7.13613324	    -17.53434146	     10.88907274	      2.37353921	      9.86503509	    -11.73004818	     -5.63339779	     21.51762656	     74.93554215	      2.41945927	     -6.54069120	     -5.42094510	     22.06790104	     73.87287559
      0.18333330	     -0.10198469	     -6.02893653	      3.04463897	      0.50127572	      1.05049851	      0.87712513	      7.72932428	      7.91278102	     -5.52206314	     18.61281205	      0.32485485	     13.78439444	     -4.91659457	     -7.14070383	     20.68647623	     -9.26421070	      4.02738650	     59.49633479	      1.03840693	      5.58577234	     -7.88690432	     -7.14070383	    -17.03226335	      9.89580493	      2.60782770	     10.15711161	    -11.75139760	     -5.52255920	     22.63817647	     74.95613066	      1.29361755	     -6.68209939	     -5.53817928	     22.13994137	     73.78282895
      0.20000000	     -0.65286190	     -5.39754423	      3.12486876	      0.50137662	      1.05153688	      0.87715301	      6.70328349	      7.24830930	     -6.09774017	     17.71172936	      0.30912799	     14.49809086	     -3.25366595	     -7.15866015	     22.90245299	     -8.70950405	      3.03661156	     56.61251733	      0.98807483	      5.99660891	     -7.55158975	     -7.15866015	    -16.57828792	      8.97214472	      2.74432925	     10.04324416	    -11.92587399	     -5.20212355	     25.01552961	     75.21285090	      0.09257521	     -6.69406856	     -5.86449938	     22.39528770	     73.63900316
